<?xml version="1.0" encoding="utf-8"?>
<!-- Generator: Adobe Illustrator 27.6.1, SVG Export Plug-In . SVG Version: 6.00 Build 0)  -->
<svg version="1.1" id="Layer_1" xmlns="http://www.w3.org/2000/svg" xmlns:xlink="http://www.w3.org/1999/xlink" x="0px" y="0px"
	 viewBox="0 0 17.6 17.6" style="enable-background:new 0 0 17.6 17.6;" xml:space="preserve">
<style type="text/css">
	.st0{fill:#002147;}
</style>
<path class="st0" d="M10.2,8.8l7.1-7.1c0.4-0.4,0.4-1,0-1.4c-0.4-0.4-1-0.4-1.4,0L8.8,7.4L1.7,0.3c-0.4-0.4-1-0.4-1.4,0
	s-0.4,1,0,1.4l7.1,7.1l-7.1,7.1c-0.4,0.4-0.4,1,0,1.4c0.2,0.2,0.5,0.3,0.7,0.3s0.5-0.1,0.7-0.3l7.1-7.1l7.1,7.1
	c0.2,0.2,0.4,0.3,0.7,0.3s0.5-0.1,0.7-0.3c0.4-0.4,0.4-1,0-1.4L10.2,8.8L10.2,8.8z"/>
</svg>
