<svg width="44" height="44" viewBox="0 0 44 44" fill="none" xmlns="http://www.w3.org/2000/svg">
<g clip-path="url(#clip0_295_76)">
<path d="M21.7003 0.799805C9.77103 0.799805 0.100281 10.4706 0.100281 22.3998C0.100281 32.5293 7.07449 41.0294 16.4826 43.3639V29.0008H12.0287V22.3998H16.4826V19.5555C16.4826 12.2037 19.8098 8.79613 27.0277 8.79613C28.3963 8.79613 30.7576 9.06483 31.7235 9.33267V15.3159C31.2138 15.2623 30.3282 15.2355 29.2283 15.2355C25.6868 15.2355 24.3182 16.5773 24.3182 20.0653V22.3998H31.3736L30.1614 29.0008H24.3182V43.8417C35.0137 42.55 43.3011 33.4435 43.3011 22.3998C43.3003 10.4706 33.6295 0.799805 21.7003 0.799805Z" fill="#ECEDE3"/>
</g>
<defs>
<clipPath id="clip0_295_76">
<rect width="43.2" height="43.2" fill="white" transform="translate(0.100281 0.799805)"/>
</clipPath>
</defs>
</svg>
