<svg width="26" height="15" viewBox="0 0 26 15" fill="none" xmlns="http://www.w3.org/2000/svg">
<path d="M22.6135 1.65582C22.6135 2.57003 23.3716 3.31115 24.3066 3.31115C25.2417 3.31115 25.9998 2.57003 25.9998 1.65582C25.9998 0.741605 25.2417 0.000488249 24.3066 0.000488209C23.3716 0.000488169 22.6135 0.741605 22.6135 1.65582Z" fill="#2F2F2F"/>
<path d="M18.431 1.73267L18.431 1.57158C18.431 0.706452 17.7137 0.00512692 16.8288 0.00512688L1.60218 0.00512623C0.717302 0.0051262 -3.05489e-05 0.706452 -3.05876e-05 1.57158L-3.05948e-05 1.73267C-3.06334e-05 2.5978 0.717302 3.29912 1.60218 3.29912L16.8288 3.29912C17.7137 3.29912 18.431 2.5978 18.431 1.73267Z" fill="#2F2F2F"/>
<path d="M22.6135 13.3148C22.6135 14.229 23.3716 14.9701 24.3066 14.9701C25.2417 14.9701 25.9998 14.229 25.9998 13.3148C25.9998 12.4005 25.2417 11.6594 24.3066 11.6594C23.3716 11.6594 22.6135 12.4005 22.6135 13.3148Z" fill="#2F2F2F"/>
<path d="M18.431 13.3916L18.431 13.2305C18.431 12.3654 17.7137 11.6641 16.8288 11.6641L1.60218 11.6641C0.717302 11.6641 -3.05489e-05 12.3654 -3.05876e-05 13.2305L-3.05948e-05 13.3916C-3.06334e-05 14.2567 0.717302 14.9581 1.60218 14.9581L16.8288 14.9581C17.7137 14.9581 18.431 14.2567 18.431 13.3916Z" fill="#2F2F2F"/>
<path d="M3.38647 7.57135C3.38647 8.48556 2.62844 9.22668 1.69336 9.22668C0.758276 9.22668 0.000244255 8.48556 0.000244215 7.57135C0.000244174 6.65713 0.758276 5.91602 1.69336 5.91602C2.62844 5.91602 3.38647 6.65713 3.38647 7.57135Z" fill="#2F2F2F"/>
<path d="M7.56897 7.6482L7.56897 7.48711C7.56897 6.62198 8.2863 5.92065 9.17118 5.92065L24.3978 5.92065C25.2827 5.92065 26 6.62198 26 7.48711L26 7.6482C26 8.51333 25.2827 9.21465 24.3978 9.21465L9.17118 9.21465C8.2863 9.21465 7.56897 8.51333 7.56897 7.6482Z" fill="#2F2F2F"/>
</svg>
