<svg width="232" height="118" viewBox="0 0 232 118" fill="none" xmlns="http://www.w3.org/2000/svg">
<g clip-path="url(#clip0_459_17)">
<path d="M222.316 69.8893C222.316 72.3687 224.327 74.3786 226.808 74.3786C229.289 74.3786 231.3 72.3687 231.3 69.8893C231.3 67.4099 229.289 65.3999 226.808 65.3999C224.327 65.3999 222.316 67.4099 222.316 69.8893Z" fill="#2F2F2F"/>
<path d="M182.34 91.4923C182.34 93.9717 184.351 95.9816 186.832 95.9816C189.313 95.9816 191.324 93.9717 191.324 91.4923C191.324 89.0129 189.313 87.0029 186.832 87.0029C184.351 87.0029 182.34 89.0129 182.34 91.4923Z" fill="#2F2F2F"/>
<path d="M142.349 69.8893C142.349 72.3687 144.36 74.3786 146.841 74.3786C149.322 74.3786 151.333 72.3687 151.333 69.8893C151.333 67.4099 149.322 65.3999 146.841 65.3999C144.36 65.3999 142.349 67.4099 142.349 69.8893Z" fill="#2F2F2F"/>
<path d="M122.361 113.11C122.361 115.59 124.372 117.6 126.853 117.6C129.334 117.6 131.345 115.59 131.345 113.11C131.345 110.631 129.334 108.621 126.853 108.621C124.372 108.621 122.361 110.631 122.361 113.11Z" fill="#2F2F2F"/>
<path d="M62.3822 91.4923C62.3822 93.9717 64.3933 95.9816 66.8742 95.9816C69.3551 95.9816 71.3662 93.9717 71.3662 91.4923C71.3662 89.0129 69.3551 87.0029 66.8742 87.0029C64.3933 87.0029 62.3822 89.0129 62.3822 91.4923Z" fill="#2F2F2F"/>
<path d="M211.222 70.1002L211.222 69.6634C211.222 67.3171 209.319 65.415 206.971 65.415L166.573 65.415C164.225 65.415 162.322 67.3171 162.322 69.6633L162.322 70.1002C162.322 72.4465 164.225 74.3485 166.573 74.3485L206.971 74.3485C209.319 74.3485 211.222 72.4465 211.222 70.1002Z" fill="#2F2F2F"/>
<path d="M131.255 70.1002L131.255 69.6634C131.255 67.3171 129.352 65.415 127.004 65.415L6.62386 65.415C4.27618 65.415 2.37303 67.3171 2.37303 69.6633L2.37303 70.1002C2.37303 72.4465 4.27618 74.3485 6.62386 74.3485L127.004 74.3485C129.352 74.3485 131.255 72.4465 131.255 70.1002Z" fill="#2F2F2F"/>
<path d="M231.21 113.321L231.21 112.885C231.21 110.538 229.307 108.636 226.959 108.636L146.901 108.636C144.554 108.636 142.651 110.538 142.651 112.885L142.651 113.321C142.651 115.668 144.554 117.57 146.901 117.57L226.959 117.57C229.307 117.57 231.21 115.668 231.21 113.321Z" fill="#2F2F2F"/>
<path d="M231.014 91.7182L231.014 91.2813C231.014 88.935 229.111 87.033 226.763 87.033L206.217 87.033C203.87 87.033 201.966 88.935 201.966 91.2813L201.966 91.7182C201.966 94.0644 203.87 95.9665 206.217 95.9665L226.763 95.9665C229.111 95.9665 231.014 94.0644 231.014 91.7182Z" fill="#2F2F2F"/>
<path d="M171.035 91.7182L171.035 91.2813C171.035 88.935 169.132 87.033 166.784 87.033L87.5556 87.033C85.2079 87.033 83.3047 88.935 83.3047 91.2813L83.3047 91.7181C83.3047 94.0644 85.2079 95.9665 87.5556 95.9665L166.784 95.9665C169.132 95.9665 171.035 94.0644 171.035 91.7182Z" fill="#2F2F2F"/>
<path d="M50.2628 91.7182L50.2628 91.2813C50.2628 88.935 48.3596 87.033 46.012 87.033L6.06614 87.033C3.71846 87.033 1.81529 88.935 1.81529 91.2813L1.81529 91.7182C1.81529 94.0644 3.71846 95.9665 6.06614 95.9665L46.0119 95.9665C48.3596 95.9665 50.2628 94.0644 50.2628 91.7182Z" fill="#2F2F2F"/>
<path d="M111.553 113.246L111.553 112.809C111.553 110.463 109.65 108.561 107.302 108.561L6.66908 108.561C4.32141 108.561 2.41825 110.463 2.41825 112.809L2.41825 113.246C2.41825 115.593 4.32141 117.495 6.66908 117.495L107.302 117.495C109.65 117.495 111.553 115.593 111.553 113.246Z" fill="#2F2F2F"/>
</g>
<g clip-path="url(#clip1_459_17)">
<path d="M221.416 5.0892C221.416 7.5686 223.427 9.57855 225.908 9.57855C228.389 9.57855 230.4 7.5686 230.4 5.0892C230.4 2.6098 228.389 0.599853 225.908 0.599853C223.427 0.599853 221.416 2.6098 221.416 5.0892Z" fill="#2F2F2F"/>
<path d="M181.44 26.6922C181.44 29.1716 183.451 31.1816 185.932 31.1816C188.413 31.1816 190.424 29.1716 190.424 26.6922C190.424 24.2128 188.413 22.2029 185.932 22.2029C183.451 22.2029 181.44 24.2128 181.44 26.6922Z" fill="#2F2F2F"/>
<path d="M141.449 5.0892C141.449 7.5686 143.46 9.57855 145.941 9.57855C148.422 9.57855 150.433 7.5686 150.433 5.0892C150.433 2.6098 148.422 0.599853 145.941 0.599853C143.46 0.599853 141.449 2.6098 141.449 5.0892Z" fill="#2F2F2F"/>
<path d="M121.461 48.3106C121.461 50.79 123.472 52.8 125.953 52.8C128.434 52.8 130.445 50.79 130.445 48.3106C130.445 45.8312 128.434 43.8213 125.953 43.8213C123.472 43.8213 121.461 45.8312 121.461 48.3106Z" fill="#2F2F2F"/>
<path d="M61.4819 26.6922C61.4819 29.1716 63.493 31.1816 65.9739 31.1816C68.4548 31.1816 70.4659 29.1716 70.4659 26.6922C70.4659 24.2128 68.4548 22.2029 65.9739 22.2029C63.493 22.2029 61.4819 24.2128 61.4819 26.6922Z" fill="#2F2F2F"/>
<path d="M210.322 5.30018L210.322 4.8633C210.322 2.51702 208.418 0.61499 206.071 0.61499L165.673 0.614988C163.325 0.614988 161.422 2.51702 161.422 4.8633L161.422 5.30018C161.422 7.64646 163.325 9.54849 165.673 9.54849L206.071 9.5485C208.418 9.5485 210.322 7.64646 210.322 5.30018Z" fill="#2F2F2F"/>
<path d="M130.354 5.30018L130.354 4.8633C130.354 2.51702 128.451 0.61499 126.104 0.61499L5.72356 0.614985C3.37588 0.614985 1.47273 2.51702 1.47273 4.8633L1.47273 5.30018C1.47273 7.64646 3.37588 9.54849 5.72356 9.54849L126.104 9.5485C128.451 9.5485 130.354 7.64646 130.354 5.30018Z" fill="#2F2F2F"/>
<path d="M230.309 48.5214L230.309 48.0845C230.309 45.7382 228.406 43.8362 226.059 43.8362L146.001 43.8362C143.654 43.8362 141.75 45.7382 141.75 48.0845L141.75 48.5214C141.75 50.8676 143.654 52.7697 146.001 52.7697L226.059 52.7697C228.406 52.7697 230.309 50.8677 230.309 48.5214Z" fill="#2F2F2F"/>
<path d="M230.114 26.9183L230.114 26.4815C230.114 24.1352 228.21 22.2332 225.863 22.2332L205.317 22.2332C202.969 22.2332 201.066 24.1352 201.066 26.4815L201.066 26.9183C201.066 29.2646 202.969 31.1667 205.317 31.1667L225.863 31.1667C228.21 31.1667 230.114 29.2646 230.114 26.9183Z" fill="#2F2F2F"/>
<path d="M170.134 26.9183L170.134 26.4815C170.134 24.1352 168.231 22.2332 165.884 22.2332L86.6553 22.2332C84.3076 22.2332 82.4044 24.1352 82.4044 26.4815L82.4044 26.9183C82.4044 29.2646 84.3076 31.1667 86.6553 31.1667L165.884 31.1667C168.231 31.1667 170.134 29.2646 170.134 26.9183Z" fill="#2F2F2F"/>
<path d="M49.3625 26.9183L49.3625 26.4815C49.3625 24.1352 47.4593 22.2332 45.1116 22.2332L5.16581 22.2332C2.81813 22.2332 0.914959 24.1352 0.914959 26.4815L0.914959 26.9183C0.914959 29.2646 2.81813 31.1667 5.16581 31.1667L45.1116 31.1667C47.4593 31.1667 49.3625 29.2646 49.3625 26.9183Z" fill="#2F2F2F"/>
<path d="M110.653 48.4462L110.653 48.0093C110.653 45.663 108.75 43.761 106.402 43.761L5.76878 43.761C3.42111 43.761 1.51795 45.663 1.51795 48.0093L1.51795 48.4462C1.51795 50.7925 3.42111 52.6945 5.76878 52.6945L106.402 52.6945C108.75 52.6945 110.653 50.7925 110.653 48.4462Z" fill="#2F2F2F"/>
</g>
<defs>
<clipPath id="clip0_459_17">
<rect width="52.2" height="229.5" fill="white" transform="translate(231.3 65.3999) rotate(90)"/>
</clipPath>
<clipPath id="clip1_459_17">
<rect width="52.2" height="229.5" fill="white" transform="translate(230.4 0.599854) rotate(90)"/>
</clipPath>
</defs>
</svg>
