<svg width="45" height="44" viewBox="0 0 45 44" fill="none" xmlns="http://www.w3.org/2000/svg">
<g clip-path="url(#clip0_295_77)">
<path d="M22.1003 4.67148C27.9784 4.67148 28.6745 4.69668 30.9862 4.79746C33.1347 4.88984 34.2948 5.24258 35.0682 5.53652C36.0909 5.92285 36.83 6.39316 37.5948 7.14062C38.3682 7.89648 38.8409 8.61035 39.2362 9.60977C39.537 10.3656 39.8979 11.5078 39.9925 13.599C40.0956 15.8666 40.1214 16.5469 40.1214 22.283C40.1214 28.0275 40.0956 28.7078 39.9925 30.967C39.8979 33.0666 39.537 34.2004 39.2362 34.9563C38.8409 35.9557 38.3597 36.6779 37.5948 37.4254C36.8214 38.1813 36.0909 38.6432 35.0682 39.0295C34.2948 39.3234 33.1261 39.6762 30.9862 39.7686C28.6659 39.8693 27.9698 39.8945 22.1003 39.8945C16.2222 39.8945 15.5261 39.8693 13.2143 39.7686C11.0659 39.6762 9.90575 39.3234 9.13231 39.0295C8.10966 38.6432 7.37059 38.1729 6.60575 37.4254C5.83231 36.6695 5.35966 35.9557 4.96434 34.9563C4.66356 34.2004 4.30262 33.0582 4.20809 30.967C4.10497 28.6994 4.07919 28.0191 4.07919 22.283C4.07919 16.5385 4.10497 15.8582 4.20809 13.599C4.30262 11.4994 4.66356 10.3656 4.96434 9.60977C5.35966 8.61035 5.84091 7.88809 6.60575 7.14062C7.37919 6.38477 8.10966 5.92285 9.13231 5.53652C9.90575 5.24258 11.0745 4.88984 13.2143 4.79746C15.5261 4.69668 16.2222 4.67148 22.1003 4.67148ZM22.1003 0.799805C16.1276 0.799805 15.38 0.825 13.0339 0.925781C10.6964 1.02656 9.08934 1.39609 7.69716 1.9252C6.24481 2.47949 5.01591 3.21016 3.79559 4.41113C2.56669 5.60371 1.81903 6.80469 1.25184 8.21563C0.710437 9.58457 0.332312 11.1467 0.229187 13.4311C0.126062 15.7322 0.100281 16.4629 0.100281 22.2998C0.100281 28.1367 0.126062 28.8674 0.229187 31.1602C0.332312 33.4445 0.710437 35.015 1.25184 36.3756C1.81903 37.7949 2.56669 38.9959 3.79559 40.1885C5.01591 41.3811 6.24481 42.1201 7.68856 42.666C9.08934 43.1951 10.6878 43.5646 13.0253 43.6654C15.3714 43.7662 16.119 43.7914 22.0917 43.7914C28.0643 43.7914 28.812 43.7662 31.1581 43.6654C33.4956 43.5646 35.1026 43.1951 36.4948 42.666C37.9386 42.1201 39.1675 41.3811 40.3878 40.1885C41.6081 38.9959 42.3643 37.7949 42.9229 36.384C43.4643 35.015 43.8425 33.4529 43.9456 31.1686C44.0487 28.8758 44.0745 28.1451 44.0745 22.3082C44.0745 16.4713 44.0487 15.7406 43.9456 13.4479C43.8425 11.1635 43.4643 9.59297 42.9229 8.23242C42.3815 6.80469 41.6339 5.60371 40.405 4.41113C39.1847 3.21855 37.9557 2.47949 36.512 1.93359C35.1112 1.40449 33.5128 1.03496 31.1753 0.93418C28.8206 0.825 28.0729 0.799805 22.1003 0.799805Z" fill="#ECEDE3"/>
<path d="M22.1003 11.2559C15.8612 11.2559 10.7995 16.2025 10.7995 22.2998C10.7995 28.3971 15.8612 33.3437 22.1003 33.3437C28.3393 33.3437 33.4011 28.3971 33.4011 22.2998C33.4011 16.2025 28.3393 11.2559 22.1003 11.2559ZM22.1003 29.4637C18.0526 29.4637 14.7698 26.2555 14.7698 22.2998C14.7698 18.3441 18.0526 15.1359 22.1003 15.1359C26.1479 15.1359 29.4307 18.3441 29.4307 22.2998C29.4307 26.2555 26.1479 29.4637 22.1003 29.4637Z" fill="#ECEDE3"/>
<path d="M36.4862 10.819C36.4862 12.2468 35.3003 13.3974 33.8479 13.3974C32.387 13.3974 31.2097 12.2384 31.2097 10.819C31.2097 9.39131 32.3956 8.24072 33.8479 8.24072C35.3003 8.24072 36.4862 9.39971 36.4862 10.819Z" fill="#ECEDE3"/>
</g>
<defs>
<clipPath id="clip0_295_77">
<rect width="44" height="43" fill="white" transform="translate(0.100281 0.799805)"/>
</clipPath>
</defs>
</svg>
