<svg width="44" height="44" viewBox="0 0 44 44" fill="none" xmlns="http://www.w3.org/2000/svg">
<g clip-path="url(#clip0_295_78)">
<path d="M40.5214 0.799805H3.7086C1.94516 0.799805 0.519226 2.19199 0.519226 3.91324V40.8779C0.519226 42.5992 1.94516 43.9998 3.7086 43.9998H40.5214C42.2848 43.9998 43.7192 42.5992 43.7192 40.8864V3.91324C43.7192 2.19199 42.2848 0.799805 40.5214 0.799805ZM13.3358 37.6126H6.92329V16.9914H13.3358V37.6126ZM10.1295 14.1817C8.07079 14.1817 6.4086 12.5195 6.4086 10.4692C6.4086 8.41887 8.07079 6.75668 10.1295 6.75668C12.1799 6.75668 13.842 8.41887 13.842 10.4692C13.842 12.5111 12.1799 14.1817 10.1295 14.1817ZM37.332 37.6126H30.928V27.5889C30.928 25.2011 30.8858 22.1214 27.5952 22.1214C24.2623 22.1214 23.7561 24.7286 23.7561 27.4201V37.6126H17.3605V16.9914H23.503V19.8095H23.5873C24.4395 18.1895 26.532 16.4767 29.6455 16.4767C36.1339 16.4767 37.332 20.7461 37.332 26.2979V37.6126Z" fill="#ECEDE3"/>
</g>
<defs>
<clipPath id="clip0_295_78">
<rect width="43.2" height="43.2" fill="white" transform="translate(0.519226 0.799805)"/>
</clipPath>
</defs>
</svg>
