<svg width="467" height="101" viewBox="0 0 467 101" fill="none" xmlns="http://www.w3.org/2000/svg">
<path d="M131.355 84.6615C131.744 84.1143 132.277 83.6607 132.953 83.3007C133.645 82.9263 134.429 82.7391 135.308 82.7391C136.33 82.7391 137.252 82.9911 138.073 83.4951C138.908 83.9991 139.563 84.7191 140.038 85.6551C140.528 86.5767 140.773 87.6495 140.773 88.8735C140.773 90.0975 140.528 91.1847 140.038 92.1351C139.563 93.0711 138.908 93.7983 138.073 94.3167C137.252 94.8351 136.33 95.0943 135.308 95.0943C134.429 95.0943 133.652 94.9143 132.975 94.5543C132.313 94.1943 131.773 93.7407 131.355 93.1935V100.602H128.331V82.9335H131.355V84.6615ZM137.684 88.8735C137.684 88.1535 137.533 87.5343 137.23 87.0159C136.942 86.4831 136.553 86.0799 136.064 85.8063C135.589 85.5327 135.07 85.3959 134.509 85.3959C133.961 85.3959 133.443 85.5399 132.953 85.8279C132.478 86.1015 132.089 86.5047 131.787 87.0375C131.499 87.5703 131.355 88.1967 131.355 88.9167C131.355 89.6367 131.499 90.2631 131.787 90.7959C132.089 91.3287 132.478 91.7391 132.953 92.0271C133.443 92.3007 133.961 92.4375 134.509 92.4375C135.07 92.4375 135.589 92.2935 136.064 92.0055C136.553 91.7175 136.942 91.3071 137.23 90.7743C137.533 90.2415 137.684 89.6079 137.684 88.8735ZM154.094 88.6575C154.094 89.0895 154.065 89.4783 154.008 89.8239H145.26C145.332 90.6879 145.634 91.3647 146.167 91.8543C146.7 92.3439 147.355 92.5887 148.132 92.5887C149.256 92.5887 150.055 92.1063 150.53 91.1415H153.792C153.446 92.2935 152.784 93.2439 151.804 93.9927C150.825 94.7271 149.623 95.0943 148.197 95.0943C147.045 95.0943 146.008 94.8423 145.087 94.3383C144.18 93.8199 143.467 93.0927 142.948 92.1567C142.444 91.2207 142.192 90.1407 142.192 88.9167C142.192 87.6783 142.444 86.5911 142.948 85.6551C143.452 84.7191 144.158 83.9991 145.065 83.4951C145.972 82.9911 147.016 82.7391 148.197 82.7391C149.335 82.7391 150.35 82.9839 151.243 83.4735C152.15 83.9631 152.848 84.6615 153.338 85.5687C153.842 86.4615 154.094 87.4911 154.094 88.6575ZM150.962 87.7935C150.948 87.0159 150.667 86.3967 150.12 85.9359C149.572 85.4607 148.903 85.2231 148.111 85.2231C147.362 85.2231 146.728 85.4535 146.21 85.9143C145.706 86.3607 145.396 86.9871 145.281 87.7935H150.962ZM159.325 84.7911C159.714 84.1575 160.218 83.6607 160.837 83.3007C161.471 82.9407 162.191 82.7607 162.997 82.7607V85.9359H162.198C161.248 85.9359 160.528 86.1591 160.038 86.6055C159.563 87.0519 159.325 87.8295 159.325 88.9383V94.8999H156.301V82.9335H159.325V84.7911ZM169.613 95.0943C168.634 95.0943 167.756 94.9215 166.978 94.5759C166.2 94.2159 165.581 93.7335 165.12 93.1287C164.674 92.5239 164.429 91.8543 164.386 91.1199H167.432C167.489 91.5807 167.712 91.9623 168.101 92.2647C168.504 92.5671 169.001 92.7183 169.592 92.7183C170.168 92.7183 170.614 92.6031 170.931 92.3727C171.262 92.1423 171.428 91.8471 171.428 91.4871C171.428 91.0983 171.226 90.8103 170.823 90.6231C170.434 90.4215 169.808 90.2055 168.944 89.9751C168.051 89.7591 167.316 89.5359 166.74 89.3055C166.179 89.0751 165.689 88.7223 165.272 88.2471C164.868 87.7719 164.667 87.1311 164.667 86.3247C164.667 85.6623 164.854 85.0575 165.228 84.5103C165.617 83.9631 166.164 83.5311 166.87 83.2143C167.59 82.8975 168.432 82.7391 169.397 82.7391C170.823 82.7391 171.96 83.0991 172.81 83.8191C173.66 84.5247 174.128 85.4823 174.214 86.6919H171.32C171.276 86.2167 171.075 85.8423 170.715 85.5687C170.369 85.2807 169.901 85.1367 169.311 85.1367C168.764 85.1367 168.339 85.2375 168.036 85.4391C167.748 85.6407 167.604 85.9215 167.604 86.2815C167.604 86.6847 167.806 86.9943 168.209 87.2103C168.612 87.4119 169.239 87.6207 170.088 87.8367C170.952 88.0527 171.665 88.2759 172.227 88.5063C172.788 88.7367 173.271 89.0967 173.674 89.5863C174.092 90.0615 174.308 90.6951 174.322 91.4871C174.322 92.1783 174.128 92.7975 173.739 93.3447C173.364 93.8919 172.817 94.3239 172.097 94.6407C171.392 94.9431 170.564 95.0943 169.613 95.0943ZM182.118 95.0943C180.966 95.0943 179.929 94.8423 179.008 94.3383C178.086 93.8199 177.359 93.0927 176.826 92.1567C176.308 91.2207 176.048 90.1407 176.048 88.9167C176.048 87.6927 176.315 86.6127 176.848 85.6767C177.395 84.7407 178.136 84.0207 179.072 83.5167C180.008 82.9983 181.052 82.7391 182.204 82.7391C183.356 82.7391 184.4 82.9983 185.336 83.5167C186.272 84.0207 187.007 84.7407 187.54 85.6767C188.087 86.6127 188.36 87.6927 188.36 88.9167C188.36 90.1407 188.08 91.2207 187.518 92.1567C186.971 93.0927 186.222 93.8199 185.272 94.3383C184.336 94.8423 183.284 95.0943 182.118 95.0943ZM182.118 92.4591C182.665 92.4591 183.176 92.3295 183.652 92.0703C184.141 91.7967 184.53 91.3935 184.818 90.8607C185.106 90.3279 185.25 89.6799 185.25 88.9167C185.25 87.7791 184.948 86.9079 184.343 86.3031C183.752 85.6839 183.025 85.3743 182.161 85.3743C181.297 85.3743 180.57 85.6839 179.98 86.3031C179.404 86.9079 179.116 87.7791 179.116 88.9167C179.116 90.0543 179.396 90.9327 179.958 91.5519C180.534 92.1567 181.254 92.4591 182.118 92.4591ZM197.21 82.7607C198.635 82.7607 199.787 83.2143 200.666 84.1215C201.544 85.0143 201.983 86.2671 201.983 87.8799V94.8999H198.959V88.2903C198.959 87.3399 198.722 86.6127 198.247 86.1087C197.771 85.5903 197.123 85.3311 196.303 85.3311C195.467 85.3311 194.805 85.5903 194.315 86.1087C193.84 86.6127 193.603 87.3399 193.603 88.2903V94.8999H190.579V82.9335H193.603V84.4239C194.006 83.9055 194.517 83.5023 195.136 83.2143C195.77 82.9119 196.461 82.7607 197.21 82.7607ZM204.081 88.8735C204.081 87.6639 204.319 86.5911 204.794 85.6551C205.284 84.7191 205.939 83.9991 206.76 83.4951C207.595 82.9911 208.524 82.7391 209.546 82.7391C210.439 82.7391 211.217 82.9191 211.879 83.2791C212.556 83.6391 213.096 84.0927 213.499 84.6399V82.9335H216.545V94.8999H213.499V93.1503C213.11 93.7119 212.57 94.1799 211.879 94.5543C211.202 94.9143 210.417 95.0943 209.525 95.0943C208.517 95.0943 207.595 94.8351 206.76 94.3167C205.939 93.7983 205.284 93.0711 204.794 92.1351C204.319 91.1847 204.081 90.0975 204.081 88.8735ZM213.499 88.9167C213.499 88.1823 213.355 87.5559 213.067 87.0375C212.779 86.5047 212.39 86.1015 211.901 85.8279C211.411 85.5399 210.885 85.3959 210.324 85.3959C209.762 85.3959 209.244 85.5327 208.769 85.8063C208.293 86.0799 207.905 86.4831 207.602 87.0159C207.314 87.5343 207.17 88.1535 207.17 88.8735C207.17 89.5935 207.314 90.2271 207.602 90.7743C207.905 91.3071 208.293 91.7175 208.769 92.0055C209.258 92.2935 209.777 92.4375 210.324 92.4375C210.885 92.4375 211.411 92.3007 211.901 92.0271C212.39 91.7391 212.779 91.3359 213.067 90.8175C213.355 90.2847 213.499 89.6511 213.499 88.9167ZM222.522 78.9159V94.8999H219.498V78.9159H222.522ZM227.043 81.5079C226.511 81.5079 226.064 81.3423 225.704 81.0111C225.359 80.6655 225.186 80.2407 225.186 79.7367C225.186 79.2327 225.359 78.8151 225.704 78.4839C226.064 78.1383 226.511 77.9655 227.043 77.9655C227.576 77.9655 228.015 78.1383 228.361 78.4839C228.721 78.8151 228.901 79.2327 228.901 79.7367C228.901 80.2407 228.721 80.6655 228.361 81.0111C228.015 81.3423 227.576 81.5079 227.043 81.5079ZM228.534 82.9335V94.8999H225.51V82.9335H228.534ZM234.286 92.4159H239.622V94.8999H230.852V92.4591L236.079 85.4175H230.874V82.9335H239.557V85.3743L234.286 92.4159ZM253.087 88.6575C253.087 89.0895 253.058 89.4783 253.001 89.8239H244.253C244.325 90.6879 244.627 91.3647 245.16 91.8543C245.693 92.3439 246.348 92.5887 247.125 92.5887C248.249 92.5887 249.048 92.1063 249.523 91.1415H252.785C252.439 92.2935 251.777 93.2439 250.797 93.9927C249.818 94.7271 248.616 95.0943 247.19 95.0943C246.038 95.0943 245.001 94.8423 244.08 94.3383C243.173 93.8199 242.46 93.0927 241.941 92.1567C241.437 91.2207 241.185 90.1407 241.185 88.9167C241.185 87.6783 241.437 86.5911 241.941 85.6551C242.445 84.7191 243.151 83.9991 244.058 83.4951C244.965 82.9911 246.009 82.7391 247.19 82.7391C248.328 82.7391 249.343 82.9839 250.236 83.4735C251.143 83.9631 251.841 84.6615 252.331 85.5687C252.835 86.4615 253.087 87.4911 253.087 88.6575ZM249.955 87.7935C249.941 87.0159 249.66 86.3967 249.113 85.9359C248.565 85.4607 247.896 85.2231 247.104 85.2231C246.355 85.2231 245.721 85.4535 245.203 85.9143C244.699 86.3607 244.389 86.9871 244.274 87.7935H249.955ZM254.517 88.8735C254.517 87.6639 254.754 86.5911 255.229 85.6551C255.719 84.7191 256.381 83.9991 257.217 83.4951C258.052 82.9911 258.981 82.7391 260.003 82.7391C260.781 82.7391 261.522 82.9119 262.228 83.2575C262.933 83.5887 263.495 84.0351 263.913 84.5967V78.9159H266.98V94.8999H263.913V93.1287C263.538 93.7191 263.013 94.1943 262.336 94.5543C261.659 94.9143 260.874 95.0943 259.981 95.0943C258.973 95.0943 258.052 94.8351 257.217 94.3167C256.381 93.7983 255.719 93.0711 255.229 92.1351C254.754 91.1847 254.517 90.0975 254.517 88.8735ZM263.934 88.9167C263.934 88.1823 263.79 87.5559 263.502 87.0375C263.214 86.5047 262.825 86.1015 262.336 85.8279C261.846 85.5399 261.321 85.3959 260.759 85.3959C260.197 85.3959 259.679 85.5327 259.204 85.8063C258.729 86.0799 258.34 86.4831 258.037 87.0159C257.749 87.5343 257.605 88.1535 257.605 88.8735C257.605 89.5935 257.749 90.2271 258.037 90.7743C258.34 91.3071 258.729 91.7175 259.204 92.0055C259.693 92.2935 260.212 92.4375 260.759 92.4375C261.321 92.4375 261.846 92.3007 262.336 92.0271C262.825 91.7391 263.214 91.3359 263.502 90.8175C263.79 90.2847 263.934 89.6511 263.934 88.9167ZM276.673 82.7607C277.58 82.7607 278.386 82.9623 279.092 83.3655C279.797 83.7543 280.345 84.3375 280.733 85.1151C281.137 85.8783 281.338 86.7999 281.338 87.8799V94.8999H278.314V88.2903C278.314 87.3399 278.077 86.6127 277.601 86.1087C277.126 85.5903 276.478 85.3311 275.657 85.3311C274.822 85.3311 274.16 85.5903 273.67 86.1087C273.195 86.6127 272.957 87.3399 272.957 88.2903V94.8999H269.933V78.9159H272.957V84.4239C273.346 83.9055 273.865 83.5023 274.513 83.2143C275.161 82.9119 275.881 82.7607 276.673 82.7607ZM295.338 88.6575C295.338 89.0895 295.309 89.4783 295.251 89.8239H286.503C286.575 90.6879 286.878 91.3647 287.411 91.8543C287.943 92.3439 288.599 92.5887 289.376 92.5887C290.499 92.5887 291.299 92.1063 291.774 91.1415H295.035C294.69 92.2935 294.027 93.2439 293.048 93.9927C292.069 94.7271 290.867 95.0943 289.441 95.0943C288.289 95.0943 287.252 94.8423 286.331 94.3383C285.423 93.8199 284.711 93.0927 284.192 92.1567C283.688 91.2207 283.436 90.1407 283.436 88.9167C283.436 87.6783 283.688 86.5911 284.192 85.6551C284.696 84.7191 285.402 83.9991 286.309 83.4951C287.216 82.9911 288.26 82.7391 289.441 82.7391C290.579 82.7391 291.594 82.9839 292.487 83.4735C293.394 83.9631 294.092 84.6615 294.582 85.5687C295.086 86.4615 295.338 87.4911 295.338 88.6575ZM292.206 87.7935C292.191 87.0159 291.911 86.3967 291.363 85.9359C290.816 85.4607 290.147 85.2231 289.355 85.2231C288.606 85.2231 287.972 85.4535 287.454 85.9143C286.95 86.3607 286.64 86.9871 286.525 87.7935H292.206ZM296.767 88.8735C296.767 87.6639 297.005 86.5911 297.48 85.6551C297.97 84.7191 298.625 83.9991 299.446 83.4951C300.281 82.9911 301.21 82.7391 302.232 82.7391C303.125 82.7391 303.903 82.9191 304.565 83.2791C305.242 83.6391 305.782 84.0927 306.185 84.6399V82.9335H309.231V94.8999H306.185V93.1503C305.796 93.7119 305.256 94.1799 304.565 94.5543C303.888 94.9143 303.103 95.0943 302.211 95.0943C301.203 95.0943 300.281 94.8351 299.446 94.3167C298.625 93.7983 297.97 93.0711 297.48 92.1351C297.005 91.1847 296.767 90.0975 296.767 88.8735ZM306.185 88.9167C306.185 88.1823 306.041 87.5559 305.753 87.0375C305.465 86.5047 305.076 86.1015 304.587 85.8279C304.097 85.5399 303.571 85.3959 303.01 85.3959C302.448 85.3959 301.93 85.5327 301.455 85.8063C300.979 86.0799 300.591 86.4831 300.288 87.0159C300 87.5343 299.856 88.1535 299.856 88.8735C299.856 89.5935 300 90.2271 300.288 90.7743C300.591 91.3071 300.979 91.7175 301.455 92.0055C301.944 92.2935 302.463 92.4375 303.01 92.4375C303.571 92.4375 304.097 92.3007 304.587 92.0271C305.076 91.7391 305.465 91.3359 305.753 90.8175C306.041 90.2847 306.185 89.6511 306.185 88.9167ZM315.208 78.9159V94.8999H312.184V78.9159H315.208ZM321.717 85.4175V91.2063C321.717 91.6095 321.81 91.9047 321.997 92.0919C322.199 92.2647 322.53 92.3511 322.991 92.3511H324.395V94.8999H322.494C319.945 94.8999 318.671 93.6615 318.671 91.1847V85.4175H317.245V82.9335H318.671V79.9743H321.717V82.9335H324.395V85.4175H321.717ZM333.309 82.7607C334.216 82.7607 335.023 82.9623 335.728 83.3655C336.434 83.7543 336.981 84.3375 337.37 85.1151C337.773 85.8783 337.975 86.7999 337.975 87.8799V94.8999H334.951V88.2903C334.951 87.3399 334.713 86.6127 334.238 86.1087C333.763 85.5903 333.115 85.3311 332.294 85.3311C331.459 85.3311 330.796 85.5903 330.307 86.1087C329.832 86.6127 329.594 87.3399 329.594 88.2903V94.8999H326.57V78.9159H329.594V84.4239C329.983 83.9055 330.501 83.5023 331.149 83.2143C331.797 82.9119 332.517 82.7607 333.309 82.7607Z" fill="#ECEDE3"/>
<g clip-path="url(#clip0_343_13)">
<path d="M233.343 48.4268C222.543 48.4268 213.75 39.6428 213.75 28.8338C213.75 18.0248 222.543 9.24976 233.343 9.24976C244.143 9.24976 252.585 17.5748 252.918 28.2038C252.954 29.1938 252.171 30.0308 251.172 30.0578C250.182 30.1028 249.345 29.3108 249.318 28.3118C249.039 19.6358 242.019 12.8408 233.334 12.8408C224.649 12.8408 217.341 20.0138 217.341 28.8338C217.341 37.6538 224.514 44.8268 233.334 44.8268C238.545 44.8268 243.45 42.2708 246.447 37.9958C247.014 37.1858 248.139 36.9878 248.958 37.5548C249.777 38.1218 249.966 39.2468 249.399 40.0658C245.736 45.3038 239.733 48.4358 233.343 48.4358V48.4268Z" fill="#ECEDE3"/>
<path d="M231.066 56.887C231.012 56.887 230.967 56.887 230.913 56.887C216.495 55.645 205.2 43.333 205.2 28.843C205.2 20.239 209.061 12.22 215.793 6.83797C216.567 6.21697 217.701 6.34297 218.322 7.11697C218.943 7.89097 218.817 9.02497 218.043 9.64597C212.175 14.335 208.809 21.328 208.809 28.834C208.809 41.47 218.655 52.207 231.228 53.287C232.218 53.368 232.956 54.241 232.866 55.231C232.785 56.167 232.002 56.878 231.075 56.878L231.066 56.887Z" fill="#ECEDE3"/>
<path d="M242.685 55.2757C241.956 55.2757 241.272 54.8347 241.002 54.1147C240.651 53.1877 241.119 52.1437 242.046 51.7927C251.523 48.2017 257.886 38.9767 257.886 28.8427C257.886 15.3067 246.879 4.29971 233.343 4.29971C231.345 4.29971 229.365 4.54271 227.448 5.01071C226.485 5.24471 225.504 4.65971 225.27 3.69671C225.036 2.73371 225.621 1.75271 226.584 1.51871C228.78 0.978707 231.057 0.699707 233.343 0.699707C248.859 0.699707 261.486 13.3267 261.486 28.8427C261.486 40.4617 254.187 51.0457 243.324 55.1587C243.117 55.2397 242.901 55.2757 242.685 55.2757Z" fill="#ECEDE3"/>
<path d="M221.787 7.2878C222.96 7.2878 223.911 6.33685 223.911 5.16379C223.911 3.99074 222.96 3.03979 221.787 3.03979C220.614 3.03979 219.663 3.99074 219.663 5.16379C219.663 6.33685 220.614 7.2878 221.787 7.2878Z" fill="#ECEDE3"/>
<path d="M250.263 36.1777C251.436 36.1777 252.387 35.2267 252.387 34.0537C252.387 32.8806 251.436 31.9297 250.263 31.9297C249.09 31.9297 248.139 32.8806 248.139 34.0537C248.139 35.2267 249.09 36.1777 250.263 36.1777Z" fill="#ECEDE3"/>
<path d="M237.861 22.2277C239.034 22.2277 239.985 21.2768 239.985 20.1037C239.985 18.9307 239.034 17.9797 237.861 17.9797C236.688 17.9797 235.737 18.9307 235.737 20.1037C235.737 21.2768 236.688 22.2277 237.861 22.2277Z" fill="#ECEDE3"/>
<path d="M236.781 56.9768C237.954 56.9768 238.905 56.0258 238.905 54.8528C238.905 53.6797 237.954 52.7288 236.781 52.7288C235.608 52.7288 234.657 53.6797 234.657 54.8528C234.657 56.0258 235.608 56.9768 236.781 56.9768Z" fill="#ECEDE3"/>
<path d="M224.955 34.8547C226.128 34.8547 227.079 33.9037 227.079 32.7307C227.079 31.5576 226.128 30.6067 224.955 30.6067C223.782 30.6067 222.831 31.5576 222.831 32.7307C222.831 33.9037 223.782 34.8547 224.955 34.8547Z" fill="#ECEDE3"/>
<path d="M224.235 28.8789C224.181 28.8789 224.127 28.8789 224.064 28.8789C223.074 28.7889 222.345 27.9069 222.435 26.9169C222.912 21.7509 226.836 17.8809 232.191 17.2779C233.163 17.1609 234.072 17.8809 234.18 18.8619C234.288 19.8519 233.577 20.7429 232.596 20.8509C228.978 21.2559 226.341 23.8209 226.017 27.2409C225.927 28.1769 225.144 28.8699 224.226 28.8699L224.235 28.8789Z" fill="#ECEDE3"/>
<path d="M233.451 39.4268C231.633 39.4268 229.824 38.9768 228.222 38.1218C227.349 37.6538 227.016 36.5648 227.484 35.6828C227.952 34.8098 229.041 34.4768 229.923 34.9448C231.003 35.5208 232.218 35.8268 233.451 35.8268C237.591 35.8268 240.957 32.4608 240.957 28.3208C240.957 27.1238 240.687 25.9808 240.147 24.9188C239.697 24.0368 240.048 22.9478 240.93 22.4978C241.821 22.0478 242.901 22.3988 243.351 23.2808C244.143 24.8288 244.557 26.5748 244.557 28.3208C244.557 34.4498 239.571 39.4268 233.451 39.4268Z" fill="#ECEDE3"/>
</g>
<path d="M349.864 86L347.4 81.648H346.344V86H344.104V74.832H348.296C349.16 74.832 349.896 74.9867 350.504 75.296C351.112 75.5947 351.565 76.0053 351.864 76.528C352.173 77.04 352.328 77.616 352.328 78.256C352.328 78.992 352.115 79.6587 351.688 80.256C351.261 80.8427 350.627 81.248 349.784 81.472L352.456 86H349.864ZM346.344 79.968H348.216C348.824 79.968 349.277 79.824 349.576 79.536C349.875 79.2373 350.024 78.8267 350.024 78.304C350.024 77.792 349.875 77.3973 349.576 77.12C349.277 76.832 348.824 76.688 348.216 76.688H346.344V79.968ZM361.042 86L358.626 82.24L356.434 86H353.906L357.426 80.368L353.858 74.832H356.434L358.85 78.576L361.026 74.832H363.554L360.05 80.448L363.618 86H361.042Z" fill="#ECEDE3"/>
<defs>
<clipPath id="clip0_343_13">
<rect width="56.277" height="56.268" fill="white" transform="translate(205.2 0.699707)"/>
</clipPath>
</defs>
</svg>
