<svg width="435" height="54" viewBox="0 0 435 54" fill="none" xmlns="http://www.w3.org/2000/svg">
<g clip-path="url(#clip0_295_51)">
<path d="M13.2458 26.7924C13.2458 21.6131 17.4607 17.4097 22.6542 17.4097" stroke="#466558" stroke-width="2.75" stroke-miterlimit="10" stroke-linecap="round"/>
<path d="M30.2592 21.2671C31.3919 22.8193 32.0622 24.7251 32.0622 26.7922C32.0622 31.9715 27.8474 36.1749 22.6539 36.1749C20.5195 36.1749 18.5469 35.4679 16.975 34.2692" stroke="#466558" stroke-width="2.75" stroke-miterlimit="10" stroke-linecap="round"/>
<path d="M35.3831 35.1222C32.6631 39.2487 27.9705 41.9767 22.646 41.9767C14.2317 41.9767 7.41235 35.176 7.41235 26.7846C7.41235 18.3931 14.2394 11.6001 22.6537 11.6001C31.0681 11.6001 37.8874 18.4008 37.8874 26.7922" stroke="#466558" stroke-width="2.75" stroke-miterlimit="10" stroke-linecap="round"/>
<path d="M9.54678 10.4092C4.73088 14.2514 1.64099 20.1607 1.64099 26.7924C1.64099 37.7581 10.0862 46.7489 20.8353 47.671" stroke="#466558" stroke-width="2.75" stroke-miterlimit="10" stroke-linecap="round"/>
<path d="M17.6067 6.44374C19.2248 6.04415 20.9123 5.83667 22.6538 5.83667C34.2582 5.83667 43.6665 15.2194 43.6665 26.7921C43.6665 35.7445 38.0338 43.3905 30.1049 46.3875" stroke="#466558" stroke-width="2.75" stroke-miterlimit="10" stroke-linecap="round"/>
<path d="M13.446 9.97081C14.4504 9.97081 15.2645 9.15886 15.2645 8.15728C15.2645 7.15569 14.4504 6.34375 13.446 6.34375C12.4417 6.34375 11.6276 7.15569 11.6276 8.15728C11.6276 9.15886 12.4417 9.97081 13.446 9.97081Z" fill="#E45333"/>
<path d="M37.1401 33.0548C38.1445 33.0548 38.9586 32.2428 38.9586 31.2413C38.9586 30.2397 38.1445 29.4277 37.1401 29.4277C36.1358 29.4277 35.3217 30.2397 35.3217 31.2413C35.3217 32.2428 36.1358 33.0548 37.1401 33.0548Z" fill="#466558"/>
<path d="M26.8608 20.1297C27.8652 20.1297 28.6793 19.3178 28.6793 18.3162C28.6793 17.3146 27.8652 16.5027 26.8608 16.5027C25.8565 16.5027 25.0424 17.3146 25.0424 18.3162C25.0424 19.3178 25.8565 20.1297 26.8608 20.1297Z" fill="#466558"/>
<path d="M25.3124 49.4C26.3167 49.4 27.1309 48.5881 27.1309 47.5865C27.1309 46.5849 26.3167 45.7729 25.3124 45.7729C24.3081 45.7729 23.4939 46.5849 23.4939 47.5865C23.4939 48.5881 24.3081 49.4 25.3124 49.4Z" fill="#466558"/>
<path d="M14.3397 32.7245C15.344 32.7245 16.1582 31.9125 16.1582 30.9109C16.1582 29.9094 15.344 29.0974 14.3397 29.0974C13.3354 29.0974 12.5212 29.9094 12.5212 30.9109C12.5212 31.9125 13.3354 32.7245 14.3397 32.7245Z" fill="#466558"/>
</g>
<path d="M60.6528 22.456C61.3333 21.5643 62.2603 20.8133 63.4336 20.2032C64.6069 19.5931 65.9328 19.288 67.4112 19.288C69.1008 19.288 70.6379 19.7104 72.0224 20.5552C73.4304 21.3765 74.5333 22.5381 75.3312 24.04C76.1291 25.5419 76.528 27.2667 76.528 29.2144C76.528 31.1621 76.1291 32.9104 75.3312 34.4592C74.5333 35.9845 73.4304 37.1813 72.0224 38.0496C70.6379 38.8944 69.1008 39.3168 67.4112 39.3168C65.9328 39.3168 64.6187 39.0235 63.4688 38.4368C62.3189 37.8267 61.3803 37.0757 60.6528 36.184V48.2224H56.64V19.6048H60.6528V22.456ZM72.4448 29.2144C72.4448 27.8768 72.1632 26.7269 71.6 25.7648C71.0603 24.7792 70.3328 24.04 69.4176 23.5472C68.5259 23.0309 67.5637 22.7728 66.5312 22.7728C65.5221 22.7728 64.56 23.0309 63.6448 23.5472C62.7531 24.0635 62.0256 24.8144 61.4624 25.8C60.9227 26.7856 60.6528 27.9472 60.6528 29.2848C60.6528 30.6224 60.9227 31.7957 61.4624 32.8048C62.0256 33.7904 62.7531 34.5413 63.6448 35.0576C64.56 35.5739 65.5221 35.832 66.5312 35.832C67.5637 35.832 68.5259 35.5739 69.4176 35.0576C70.3328 34.5179 71.0603 33.7435 71.6 32.7344C72.1632 31.7253 72.4448 30.552 72.4448 29.2144ZM98.2722 28.8272C98.2722 29.5547 98.2253 30.2117 98.1314 30.7984H83.3122C83.4296 32.3472 84.0045 33.5909 85.037 34.5296C86.0696 35.4683 87.3368 35.9376 88.8386 35.9376C90.9976 35.9376 92.5229 35.0341 93.4146 33.2272H97.7442C97.1576 35.0107 96.0898 36.4773 94.541 37.6272C93.0157 38.7536 91.1149 39.3168 88.8386 39.3168C86.9848 39.3168 85.3186 38.9061 83.8402 38.0848C82.3853 37.24 81.2354 36.0667 80.3906 34.5648C79.5693 33.0395 79.1586 31.2795 79.1586 29.2848C79.1586 27.2901 79.5576 25.5419 80.3554 24.04C81.1768 22.5147 82.3149 21.3413 83.7698 20.52C85.2482 19.6987 86.9378 19.288 88.8386 19.288C90.669 19.288 92.3 19.6869 93.7314 20.4848C95.1629 21.2827 96.2776 22.4091 97.0754 23.864C97.8733 25.2955 98.2722 26.9499 98.2722 28.8272ZM94.0834 27.56C94.06 26.0816 93.532 24.8965 92.4994 24.0048C91.4669 23.1131 90.188 22.6672 88.6626 22.6672C87.2781 22.6672 86.093 23.1131 85.1074 24.0048C84.1218 24.8731 83.5352 26.0581 83.3474 27.56H94.0834ZM106.234 22.4208C106.821 21.4352 107.595 20.6725 108.557 20.1328C109.543 19.5696 110.704 19.288 112.042 19.288V23.4416H111.021C109.449 23.4416 108.252 23.8405 107.431 24.6384C106.633 25.4363 106.234 26.8208 106.234 28.792V39H102.221V19.6048H106.234V22.4208ZM122.771 39.3168C121.245 39.3168 119.872 39.0469 118.652 38.5072C117.455 37.944 116.505 37.1931 115.801 36.2544C115.097 35.2923 114.722 34.2245 114.675 33.0512H118.828C118.899 33.8725 119.286 34.5648 119.99 35.128C120.717 35.6677 121.621 35.9376 122.7 35.9376C123.827 35.9376 124.695 35.7264 125.305 35.304C125.939 34.8581 126.255 34.2949 126.255 33.6144C126.255 32.8869 125.903 32.3472 125.199 31.9952C124.519 31.6432 123.428 31.256 121.926 30.8336C120.471 30.4347 119.286 30.0475 118.371 29.672C117.455 29.2965 116.658 28.7216 115.977 27.9472C115.32 27.1728 114.991 26.152 114.991 24.8848C114.991 23.8523 115.296 22.9136 115.907 22.0688C116.517 21.2005 117.385 20.52 118.511 20.0272C119.661 19.5344 120.975 19.288 122.454 19.288C124.66 19.288 126.431 19.8512 127.769 20.9776C129.13 22.0805 129.858 23.5941 129.951 25.5184H125.939C125.868 24.6501 125.516 23.9579 124.883 23.4416C124.249 22.9253 123.392 22.6672 122.313 22.6672C121.257 22.6672 120.447 22.8667 119.884 23.2656C119.321 23.6645 119.039 24.1925 119.039 24.8496C119.039 25.3659 119.227 25.8 119.603 26.152C119.978 26.504 120.436 26.7856 120.975 26.9968C121.515 27.1845 122.313 27.4309 123.369 27.736C124.777 28.1115 125.927 28.4987 126.819 28.8976C127.734 29.2731 128.52 29.8363 129.177 30.5872C129.834 31.3381 130.174 32.3355 130.198 33.5792C130.198 34.6821 129.893 35.6677 129.283 36.536C128.672 37.4043 127.804 38.0848 126.678 38.5776C125.575 39.0704 124.272 39.3168 122.771 39.3168ZM142.947 39.3168C141.116 39.3168 139.462 38.9061 137.983 38.0848C136.505 37.24 135.343 36.0667 134.499 34.5648C133.654 33.0395 133.231 31.2795 133.231 29.2848C133.231 27.3136 133.665 25.5653 134.534 24.04C135.402 22.5147 136.587 21.3413 138.089 20.52C139.591 19.6987 141.269 19.288 143.123 19.288C144.976 19.288 146.654 19.6987 148.156 20.52C149.658 21.3413 150.843 22.5147 151.711 24.04C152.58 25.5653 153.014 27.3136 153.014 29.2848C153.014 31.256 152.568 33.0043 151.676 34.5296C150.784 36.0549 149.564 37.24 148.015 38.0848C146.49 38.9061 144.8 39.3168 142.947 39.3168ZM142.947 35.832C143.979 35.832 144.941 35.5856 145.833 35.0928C146.748 34.6 147.487 33.8608 148.051 32.8752C148.614 31.8896 148.895 30.6928 148.895 29.2848C148.895 27.8768 148.625 26.6917 148.086 25.7296C147.546 24.744 146.83 24.0048 145.939 23.512C145.047 23.0192 144.085 22.7728 143.052 22.7728C142.02 22.7728 141.057 23.0192 140.166 23.512C139.297 24.0048 138.605 24.744 138.089 25.7296C137.573 26.6917 137.315 27.8768 137.315 29.2848C137.315 31.3733 137.843 32.9925 138.899 34.1424C139.978 35.2688 141.327 35.832 142.947 35.832ZM166.766 19.288C168.292 19.288 169.653 19.6048 170.849 20.2384C172.07 20.872 173.02 21.8107 173.701 23.0544C174.381 24.2981 174.721 25.8 174.721 27.56V39H170.744V28.1584C170.744 26.4219 170.31 25.096 169.441 24.1808C168.573 23.2421 167.388 22.7728 165.886 22.7728C164.384 22.7728 163.188 23.2421 162.296 24.1808C161.428 25.096 160.993 26.4219 160.993 28.1584V39H156.981V19.6048H160.993V21.8224C161.65 21.0245 162.484 20.4027 163.493 19.9568C164.525 19.5109 165.616 19.288 166.766 19.288ZM178.502 29.2144C178.502 27.2667 178.901 25.5419 179.699 24.04C180.521 22.5381 181.623 21.3765 183.008 20.5552C184.416 19.7104 185.965 19.288 187.654 19.288C189.18 19.288 190.506 19.5931 191.632 20.2032C192.782 20.7899 193.697 21.5291 194.378 22.4208V19.6048H198.426V39H194.378V36.1136C193.697 37.0288 192.77 37.7915 191.597 38.4016C190.423 39.0117 189.086 39.3168 187.584 39.3168C185.918 39.3168 184.393 38.8944 183.008 38.0496C181.623 37.1813 180.521 35.9845 179.699 34.4592C178.901 32.9104 178.502 31.1621 178.502 29.2144ZM194.378 29.2848C194.378 27.9472 194.096 26.7856 193.533 25.8C192.993 24.8144 192.277 24.0635 191.386 23.5472C190.494 23.0309 189.532 22.7728 188.499 22.7728C187.467 22.7728 186.505 23.0309 185.613 23.5472C184.721 24.04 183.994 24.7792 183.43 25.7648C182.891 26.7269 182.621 27.8768 182.621 29.2144C182.621 30.552 182.891 31.7253 183.43 32.7344C183.994 33.7435 184.721 34.5179 185.613 35.0576C186.528 35.5739 187.49 35.832 188.499 35.832C189.532 35.832 190.494 35.5739 191.386 35.0576C192.277 34.5413 192.993 33.7904 193.533 32.8048C194.096 31.7957 194.378 30.6224 194.378 29.2848ZM207.709 12.952V39H203.696V12.952H207.709ZM215.019 17.0352C214.292 17.0352 213.681 16.7888 213.189 16.296C212.696 15.8032 212.449 15.1931 212.449 14.4656C212.449 13.7381 212.696 13.128 213.189 12.6352C213.681 12.1424 214.292 11.896 215.019 11.896C215.723 11.896 216.321 12.1424 216.814 12.6352C217.307 13.128 217.553 13.7381 217.553 14.4656C217.553 15.1931 217.307 15.8032 216.814 16.296C216.321 16.7888 215.723 17.0352 215.019 17.0352ZM216.99 19.6048V39H212.977V19.6048H216.99ZM225.814 35.7264H234.614V39H221.168V35.7264L230.003 22.8784H221.168V19.6048H234.614V22.8784L225.814 35.7264ZM256.603 28.8272C256.603 29.5547 256.557 30.2117 256.463 30.7984H241.643C241.761 32.3472 242.336 33.5909 243.368 34.5296C244.401 35.4683 245.668 35.9376 247.17 35.9376C249.329 35.9376 250.854 35.0341 251.746 33.2272H256.075C255.489 35.0107 254.421 36.4773 252.872 37.6272C251.347 38.7536 249.446 39.3168 247.17 39.3168C245.316 39.3168 243.65 38.9061 242.171 38.0848C240.717 37.24 239.567 36.0667 238.722 34.5648C237.901 33.0395 237.49 31.2795 237.49 29.2848C237.49 27.2901 237.889 25.5419 238.687 24.04C239.508 22.5147 240.646 21.3413 242.101 20.52C243.579 19.6987 245.269 19.288 247.17 19.288C249 19.288 250.631 19.6869 252.063 20.4848C253.494 21.2827 254.609 22.4091 255.407 23.864C256.205 25.2955 256.603 26.9499 256.603 28.8272ZM252.415 27.56C252.391 26.0816 251.863 24.8965 250.831 24.0048C249.798 23.1131 248.519 22.6672 246.994 22.6672C245.609 22.6672 244.424 23.1131 243.439 24.0048C242.453 24.8731 241.866 26.0581 241.679 27.56H252.415ZM259.215 29.2144C259.215 27.2667 259.614 25.5419 260.412 24.04C261.233 22.5381 262.336 21.3765 263.72 20.5552C265.128 19.7104 266.689 19.288 268.402 19.288C269.669 19.288 270.913 19.5696 272.133 20.1328C273.377 20.6725 274.363 21.4 275.09 22.3152V12.952H279.138V39H275.09V36.0784C274.433 37.0171 273.518 37.7915 272.344 38.4016C271.195 39.0117 269.869 39.3168 268.367 39.3168C266.677 39.3168 265.128 38.8944 263.72 38.0496C262.336 37.1813 261.233 35.9845 260.412 34.4592C259.614 32.9104 259.215 31.1621 259.215 29.2144ZM275.09 29.2848C275.09 27.9472 274.808 26.7856 274.245 25.8C273.706 24.8144 272.99 24.0635 272.098 23.5472C271.206 23.0309 270.244 22.7728 269.212 22.7728C268.179 22.7728 267.217 23.0309 266.325 23.5472C265.434 24.04 264.706 24.7792 264.143 25.7648C263.603 26.7269 263.333 27.8768 263.333 29.2144C263.333 30.552 263.603 31.7253 264.143 32.7344C264.706 33.7435 265.434 34.5179 266.325 35.0576C267.24 35.5739 268.203 35.832 269.212 35.832C270.244 35.832 271.206 35.5739 272.098 35.0576C272.99 34.5413 273.706 33.7904 274.245 32.8048C274.808 31.7957 275.09 30.6224 275.09 29.2848ZM294.441 19.288C295.919 19.288 297.233 19.6048 298.383 20.2384C299.556 20.872 300.472 21.8107 301.129 23.0544C301.809 24.2981 302.15 25.8 302.15 27.56V39H298.172V28.1584C298.172 26.4219 297.738 25.096 296.87 24.1808C296.001 23.2421 294.816 22.7728 293.314 22.7728C291.812 22.7728 290.616 23.2421 289.724 24.1808C288.856 25.096 288.422 26.4219 288.422 28.1584V39H284.409V12.952H288.422V21.8576C289.102 21.0363 289.959 20.4027 290.991 19.9568C292.047 19.5109 293.197 19.288 294.441 19.288ZM325.044 28.8272C325.044 29.5547 324.997 30.2117 324.903 30.7984H310.084C310.201 32.3472 310.776 33.5909 311.809 34.5296C312.841 35.4683 314.109 35.9376 315.611 35.9376C317.769 35.9376 319.295 35.0341 320.187 33.2272H324.516C323.929 35.0107 322.862 36.4773 321.313 37.6272C319.788 38.7536 317.887 39.3168 315.611 39.3168C313.757 39.3168 312.091 38.9061 310.612 38.0848C309.157 37.24 308.007 36.0667 307.163 34.5648C306.341 33.0395 305.931 31.2795 305.931 29.2848C305.931 27.2901 306.329 25.5419 307.127 24.04C307.949 22.5147 309.087 21.3413 310.542 20.52C312.02 19.6987 313.71 19.288 315.611 19.288C317.441 19.288 319.072 19.6869 320.503 20.4848C321.935 21.2827 323.049 22.4091 323.847 23.864C324.645 25.2955 325.044 26.9499 325.044 28.8272ZM320.855 27.56C320.832 26.0816 320.304 24.8965 319.271 24.0048C318.239 23.1131 316.96 22.6672 315.435 22.6672C314.05 22.6672 312.865 23.1131 311.879 24.0048C310.894 24.8731 310.307 26.0581 310.119 27.56H320.855ZM327.656 29.2144C327.656 27.2667 328.054 25.5419 328.852 24.04C329.674 22.5381 330.777 21.3765 332.161 20.5552C333.569 19.7104 335.118 19.288 336.808 19.288C338.333 19.288 339.659 19.5931 340.785 20.2032C341.935 20.7899 342.85 21.5291 343.531 22.4208V19.6048H347.579V39H343.531V36.1136C342.85 37.0288 341.923 37.7915 340.75 38.4016C339.577 39.0117 338.239 39.3168 336.737 39.3168C335.071 39.3168 333.546 38.8944 332.161 38.0496C330.777 37.1813 329.674 35.9845 328.852 34.4592C328.054 32.9104 327.656 31.1621 327.656 29.2144ZM343.531 29.2848C343.531 27.9472 343.249 26.7856 342.686 25.8C342.146 24.8144 341.43 24.0635 340.539 23.5472C339.647 23.0309 338.685 22.7728 337.652 22.7728C336.62 22.7728 335.658 23.0309 334.766 23.5472C333.874 24.04 333.147 24.7792 332.584 25.7648C332.044 26.7269 331.774 27.8768 331.774 29.2144C331.774 30.552 332.044 31.7253 332.584 32.7344C333.147 33.7435 333.874 34.5179 334.766 35.0576C335.681 35.5739 336.643 35.832 337.652 35.832C338.685 35.832 339.647 35.5739 340.539 35.0576C341.43 34.5413 342.146 33.7904 342.686 32.8048C343.249 31.7957 343.531 30.6224 343.531 29.2848ZM356.862 12.952V39H352.849V12.952H356.862ZM366.812 22.8784V33.6144C366.812 34.3419 366.976 34.8699 367.305 35.1984C367.657 35.5035 368.244 35.656 369.065 35.656H371.529V39H368.361C366.554 39 365.17 38.5776 364.207 37.7328C363.245 36.888 362.764 35.5152 362.764 33.6144V22.8784H360.476V19.6048H362.764V14.7824H366.812V19.6048H371.529V22.8784H366.812ZM385.259 19.288C386.738 19.288 388.052 19.6048 389.202 20.2384C390.375 20.872 391.29 21.8107 391.947 23.0544C392.628 24.2981 392.968 25.8 392.968 27.56V39H388.991V28.1584C388.991 26.4219 388.557 25.096 387.688 24.1808C386.82 23.2421 385.635 22.7728 384.133 22.7728C382.631 22.7728 381.434 23.2421 380.543 24.1808C379.674 25.096 379.24 26.4219 379.24 28.1584V39H375.227V12.952H379.24V21.8576C379.921 21.0363 380.777 20.4027 381.81 19.9568C382.866 19.5109 384.016 19.288 385.259 19.288Z" fill="#2F2F2F"/>
<path d="M412.494 24L409.445 18.6144H408.138V24H405.366V10.1796H410.554C411.623 10.1796 412.534 10.371 413.286 10.7538C414.039 11.1234 414.6 11.6316 414.969 12.2784C415.352 12.912 415.543 13.6248 415.543 14.4168C415.543 15.3276 415.279 16.1526 414.751 16.8918C414.223 17.6178 413.438 18.1194 412.395 18.3966L415.702 24H412.494ZM408.138 16.5354H410.455C411.207 16.5354 411.768 16.3572 412.138 16.0008C412.507 15.6312 412.692 15.123 412.692 14.4762C412.692 13.8426 412.507 13.3542 412.138 13.011C411.768 12.6546 411.207 12.4764 410.455 12.4764H408.138V16.5354ZM426.327 24L423.337 19.347L420.625 24H417.496L421.852 17.0304L417.437 10.1796H420.625L423.614 14.8128L426.307 10.1796H429.436L425.099 17.1294L429.515 24H426.327Z" fill="#2F2F2F"/>
<defs>
<clipPath id="clip0_295_51">
<rect width="45.1" height="45.1" fill="white" transform="translate(0.100098 4.2998)"/>
</clipPath>
</defs>
</svg>
