<svg width="60" height="60" viewBox="0 0 60 60" fill="none" xmlns="http://www.w3.org/2000/svg">
<path d="M45.8741 0.899902H14.262C6.88669 0.899902 0.887695 6.90133 0.887695 14.2742V45.8863C0.887695 53.2592 6.88669 59.2607 14.262 59.2607H45.8741C53.2494 59.2607 59.2484 53.2592 59.2484 45.8863V14.2742C59.2484 6.90133 53.2494 0.899902 45.8741 0.899902ZM42.2266 30.0803C42.2266 30.4937 42.0174 30.8779 41.6697 31.104L24.6478 42.0467C24.446 42.1755 24.2174 42.2388 23.9888 42.2388C23.787 42.2388 23.5876 42.1877 23.4052 42.088C23.0161 41.8789 22.773 41.4679 22.773 41.0229V19.1376C22.773 18.6926 23.0161 18.2817 23.4052 18.0725C23.7967 17.8561 24.2709 17.8732 24.6454 18.1163L41.6673 29.059C42.0174 29.2827 42.2266 29.6669 42.2266 30.0803Z" fill="white"/>
</svg>
